# xmcd
#
# Track frame offsets:
#	150
#	14502
#	28544
#	40696
#	58020
#	73943
#	90064
#	105636
#	118699
#	136596
#	153153
#	171077
#	187725
#	201103
#	218130
#	232001
#	244885
#	262200
#	280505
#
# Disc length: 3963 seconds
#
# Revision: 1
# Processed by: cddbd v1.5.2PL0 Copyright (c) Steve Scherf et al.
# Submitted via: audiograbber 1.83.01
#
DISCID=fe0f7913
DTITLE=Various Artist - CDX 449
DYEAR=2008
DGENRE=Country
TTITLE0=Randy Houser - Anything Goes
TTITLE1=Darius Rucker - Don't Think I Don't About It
TTITLE2=Marcel - I Love This Song
TTITLE3=Craig Morgan - Love Remembers
TTITLE4=Aston Shepherd - Sounds So Good
TTITLE5=Eli Young Band - When It Rains
TTITLE6=The Road Hammers - Girl On The Billboard
TTITLE7=Donnie Vondra - How Long Am I Supposed To Wait
TTITLE8=John Michael Montgomery - If You Ever Went Away
TTITLE9=Crossin Dixon - I Love My Old Bird Dog (& I Love You)
TTITLE10=Steve Azar - I Won't Let You Lead Me Down
TTITLE11=Mike Aiken - Find Me
TTITLE12=Frank Ortega - Hot Women Cold Beer
TTITLE13=James Cain - How Much Tequila
TTITLE14=Sarah Gayle Taylor - I Miss Us
TTITLE15=Shelly Lynch - Plowin' and Cryin'
TTITLE16=Zane Lewis - Welcome To The Southland
TTITLE17=Mike Cullison - I Wish I Didn't Like Whiskey
TTITLE18=Heather Necole - You Live On (Fathers Day Tribute)
EXTD=
EXTT0=
EXTT1=
EXTT2=
EXTT3=
EXTT4=
EXTT5=
EXTT6=
EXTT7=
EXTT8=
EXTT9=
EXTT10=
EXTT11=
EXTT12=
EXTT13=
EXTT14=
EXTT15=
EXTT16=
EXTT17=
EXTT18=
PLAYORDER=
